<?xml version="1.0" encoding="UTF-8"?>
<svg xmlns="http://www.w3.org/2000/svg" xmlns:xlink="http://www.w3.org/1999/xlink" width="166.67" height="59.42" viewBox="105.01 155.15 166.67 59.42">
<defs>
<g>
<g id="glyph-0-0">
<path d="M 1.046875 0 L 1.046875 -14.71875 L 11.171875 -14.71875 C 12.960938 -14.71875 14.34375 -14.304688 15.3125 -13.484375 C 16.28125 -12.660156 16.765625 -11.503906 16.765625 -10.015625 C 16.742188 -8.546875 16.25 -7.398438 15.28125 -6.578125 C 14.320312 -5.753906 12.953125 -5.34375 11.171875 -5.34375 L 2.78125 -5.34375 L 2.78125 0 Z M 2.78125 -6.875 L 10.9375 -6.875 C 12.257812 -6.875 13.269531 -7.148438 13.96875 -7.703125 C 14.675781 -8.253906 15.03125 -9.023438 15.03125 -10.015625 C 15.03125 -11.003906 14.675781 -11.773438 13.96875 -12.328125 C 13.269531 -12.890625 12.257812 -13.171875 10.9375 -13.171875 L 2.78125 -13.171875 Z M 2.78125 -6.875 "/>
</g>
<g id="glyph-0-1">
<path d="M 0.109375 0 L 7.9375 -14.71875 L 9.984375 -14.71875 L 17.765625 0 L 15.921875 0 L 13.984375 -3.53125 L 3.875 -3.53125 L 1.96875 0 Z M 4.65625 -5.078125 L 13.234375 -5.078125 L 8.96875 -13.1875 L 8.9375 -13.1875 Z M 4.65625 -5.078125 "/>
</g>
<g id="glyph-0-2">
<path d="M 1.046875 0 L 1.046875 -14.71875 L 9.734375 -14.71875 C 12.484375 -14.71875 14.59375 -14.078125 16.0625 -12.796875 C 17.539062 -11.523438 18.28125 -9.707031 18.28125 -7.34375 C 18.28125 -4.988281 17.539062 -3.175781 16.0625 -1.90625 C 14.59375 -0.632812 12.484375 0 9.734375 0 Z M 2.78125 -1.53125 L 9.734375 -1.53125 C 11.929688 -1.53125 13.613281 -2.03125 14.78125 -3.03125 C 15.957031 -4.039062 16.546875 -5.476562 16.546875 -7.34375 C 16.546875 -9.226562 15.957031 -10.671875 14.78125 -11.671875 C 13.613281 -12.671875 11.929688 -13.171875 9.734375 -13.171875 L 2.78125 -13.171875 Z M 2.78125 -1.53125 "/>
</g>
<g id="glyph-0-3">
<path d="M 1.046875 0 L 1.046875 -14.71875 L 15.28125 -14.71875 L 15.28125 -13.171875 L 2.734375 -13.171875 L 2.734375 -8.34375 L 14.453125 -8.34375 L 14.453125 -6.84375 L 2.734375 -6.84375 L 2.734375 -1.53125 L 15.484375 -1.53125 L 15.484375 0 Z M 1.046875 0 "/>
</g>
<g id="glyph-0-4">
<path d="M 1.046875 0 L 1.046875 -14.71875 L 2.78125 -14.71875 L 2.78125 -1.53125 L 12.40625 -1.53125 L 12.40625 0 Z M 1.046875 0 "/>
</g>
<g id="glyph-0-5">
</g>
<g id="glyph-0-6">
<path d="M 9.4375 0.515625 C 8.1875 0.515625 7.046875 0.320312 6.015625 -0.0625 C 4.992188 -0.445312 4.113281 -0.992188 3.375 -1.703125 C 2.644531 -2.421875 2.078125 -3.253906 1.671875 -4.203125 C 1.273438 -5.160156 1.078125 -6.207031 1.078125 -7.34375 C 1.078125 -8.488281 1.273438 -9.539062 1.671875 -10.5 C 2.078125 -11.457031 2.644531 -12.289062 3.375 -13 C 4.113281 -13.707031 4.992188 -14.253906 6.015625 -14.640625 C 7.046875 -15.035156 8.1875 -15.234375 9.4375 -15.234375 C 10.675781 -15.234375 11.804688 -15.035156 12.828125 -14.640625 C 13.847656 -14.253906 14.726562 -13.707031 15.46875 -13 C 16.207031 -12.289062 16.773438 -11.457031 17.171875 -10.5 C 17.566406 -9.539062 17.765625 -8.488281 17.765625 -7.34375 C 17.765625 -6.207031 17.566406 -5.160156 17.171875 -4.203125 C 16.773438 -3.253906 16.207031 -2.421875 15.46875 -1.703125 C 14.726562 -0.992188 13.847656 -0.445312 12.828125 -0.0625 C 11.804688 0.320312 10.675781 0.515625 9.4375 0.515625 Z M 9.4375 -0.859375 C 10.757812 -0.859375 11.914062 -1.132812 12.90625 -1.6875 C 13.894531 -2.25 14.660156 -3.019531 15.203125 -4 C 15.753906 -4.976562 16.03125 -6.09375 16.03125 -7.34375 C 16.03125 -8.613281 15.753906 -9.734375 15.203125 -10.703125 C 14.660156 -11.679688 13.894531 -12.453125 12.90625 -13.015625 C 11.914062 -13.578125 10.757812 -13.859375 9.4375 -13.859375 C 8.113281 -13.859375 6.953125 -13.578125 5.953125 -13.015625 C 4.960938 -12.453125 4.195312 -11.679688 3.65625 -10.703125 C 3.113281 -9.734375 2.84375 -8.613281 2.84375 -7.34375 C 2.84375 -6.09375 3.113281 -4.976562 3.65625 -4 C 4.195312 -3.019531 4.960938 -2.25 5.953125 -1.6875 C 6.953125 -1.132812 8.113281 -0.859375 9.4375 -0.859375 Z M 9.4375 -0.859375 "/>
</g>
</g>
</defs>



<path fill="none" stroke-width="1.999999" stroke-linecap="butt" stroke-linejoin="miter" stroke="#0A0A0A" stroke-opacity="1" stroke-miterlimit="4" d="M 2.669274 49.000538 L 2.669274 10.604702 L 36.742193 10.604702 C 41.726568 10.604702 45.549485 11.521369 48.210943 13.349494 C 50.87761 15.182827 52.210944 17.802619 52.210944 21.214078 C 52.210944 23.135953 51.65886 24.813036 50.554694 26.255745 C 49.455735 27.693245 47.893235 28.77137 45.867193 29.484912 L 45.867193 29.589078 C 48.247402 30.266162 50.075527 31.375537 51.351569 32.922412 C 52.638027 34.464079 53.278652 36.339079 53.278652 38.547412 C 53.278652 41.885954 51.981777 44.464079 49.382819 46.276579 C 46.789068 48.094288 43.054693 49.000538 38.190109 49.000538 Z M 19.736983 25.797411 L 30.716151 25.797411 C 32.138026 25.797411 33.231776 25.526578 33.997401 24.979703 C 34.757818 24.422411 35.143234 23.630745 35.143234 22.594286 C 35.143234 21.573453 34.757818 20.786994 33.997401 20.240119 C 33.231776 19.682828 32.138026 19.406786 30.716151 19.406786 L 19.736983 19.406786 Z M 19.674483 40.198454 L 31.731776 40.198454 C 34.716151 40.198454 36.210943 39.115121 36.210943 36.943246 C 36.210943 34.667204 34.716151 33.531787 31.731776 33.531787 L 19.674483 33.531787 Z M 85.007821 50.328663 C 79.210945 50.328663 74.148445 49.484913 69.830737 47.802621 C 65.513028 46.109913 62.164069 43.724496 59.778653 40.651579 C 57.398444 37.583871 56.210944 33.964079 56.210944 29.797412 C 56.210944 25.635953 57.398444 22.02137 59.778653 18.948453 C 62.164069 15.875536 65.513028 13.495327 69.830737 11.802619 C 74.148445 10.10991 79.210945 9.260952 85.007821 9.260952 C 90.799488 9.260952 95.85678 10.10991 100.179697 11.802619 C 104.502614 13.495327 107.851572 15.875536 110.231781 18.948453 C 112.617198 22.02137 113.809906 25.635953 113.809906 29.797412 C 113.809906 33.964079 112.617198 37.583871 110.231781 40.651579 C 107.851572 43.724496 104.502614 46.109913 100.179697 47.802621 C 95.85678 49.484913 90.799488 50.328663 85.007821 50.328663 Z M 85.007821 38.599496 C 88.559904 38.599496 91.403655 37.797412 93.539071 36.203662 C 95.674488 34.604704 96.742197 32.469287 96.742197 29.797412 C 96.742197 27.130745 95.674488 25.000536 93.539071 23.401578 C 91.403655 21.807828 88.559904 21.005744 85.007821 21.005744 C 81.450529 21.005744 78.60157 21.807828 76.466154 23.401578 C 74.341153 25.000536 73.278653 27.130745 73.278653 29.797412 C 73.278653 32.469287 74.341153 34.604704 76.466154 36.203662 C 78.60157 37.797412 81.450529 38.599496 85.007821 38.599496 Z M 140.893241 50.068246 C 138.049491 50.068246 135.111991 49.865121 132.091157 49.453663 C 129.070324 49.047413 126.200532 48.469288 123.476573 47.724496 C 120.757823 46.979705 118.42449 46.120329 116.471365 45.156788 L 121.429698 34.979704 C 123.210948 35.86512 125.252615 36.661996 127.565115 37.375537 C 129.872407 38.083871 132.257824 38.646371 134.721366 39.052621 C 137.195324 39.458871 139.559908 39.667204 141.8047 39.667204 C 144.1172 39.667204 145.924492 39.495329 147.236992 39.156787 C 148.5547 38.818246 149.216158 38.313037 149.216158 37.646371 C 149.216158 37.073454 148.638033 36.609912 147.481783 36.255745 C 146.330742 35.89637 144.471366 35.61512 141.908866 35.406787 L 135.778658 34.807829 C 129.200532 34.20887 124.414073 32.95887 121.429698 31.057828 C 118.445323 29.156787 116.950531 26.42762 116.950531 22.870328 C 116.98699 19.984911 118.039073 17.552619 120.117198 15.563036 C 122.200532 13.568244 125.122407 12.057827 128.888032 11.031785 C 132.658866 10.000535 137.049491 9.48491 142.065116 9.48491 C 145.981783 9.48491 149.757825 9.807827 153.393242 10.448452 C 157.039076 11.083869 160.216159 11.984911 162.924493 13.156786 L 158.966159 22.922411 C 156.585951 21.781786 153.888034 20.906786 150.8672 20.292203 C 147.846367 19.667203 144.966158 19.370328 142.221366 19.406786 C 139.695324 19.438036 137.617199 19.646369 135.986991 20.016161 C 134.356782 20.391161 133.523449 20.932828 133.486991 21.64637 C 133.445324 22.104703 133.940116 22.484911 134.971366 22.792203 C 136.002616 23.094286 137.658866 23.33387 139.929699 23.505745 L 146.221367 24.042203 C 153.049492 24.64637 158.013034 25.911995 161.101576 27.828662 C 164.200534 29.745328 165.752618 32.536995 165.752618 36.203662 C 165.783868 38.938037 164.789076 41.344287 162.757826 43.427621 C 160.731784 45.510954 157.856784 47.135955 154.122409 48.30783 C 150.393242 49.479705 145.981783 50.068246 140.893241 50.068246 Z M 192.304703 50.068246 C 189.455744 50.068246 186.523453 49.865121 183.502619 49.453663 C 180.481785 49.047413 177.606785 48.469288 174.882827 47.724496 C 172.164077 46.979705 169.830743 46.120329 167.877618 45.156788 L 172.835952 34.979704 C 174.617202 35.86512 176.664077 36.661996 178.971369 37.375537 C 181.27866 38.083871 183.669286 38.646371 186.132827 39.052621 C 188.606786 39.458871 190.966161 39.667204 193.216161 39.667204 C 195.523453 39.667204 197.335953 39.495329 198.643245 39.156787 C 199.960953 38.818246 200.622412 38.313037 200.622412 37.646371 C 200.622412 37.073454 200.044287 36.609912 198.893245 36.255745 C 197.736995 35.89637 195.87762 35.61512 193.320328 35.406787 L 187.184911 34.807829 C 180.606785 34.20887 175.825535 32.95887 172.835952 31.057828 C 169.851576 29.156787 168.361993 26.42762 168.361993 22.870328 C 168.393243 19.984911 169.450535 17.552619 171.523452 15.563036 C 173.606785 13.568244 176.533869 12.057827 180.299494 11.031785 C 184.065119 10.000535 188.455744 9.48491 193.476578 9.48491 C 197.388037 9.48491 201.164078 9.807827 204.804704 10.448452 C 208.450537 11.083869 211.627621 11.984911 214.330746 13.156786 L 210.377621 22.922411 C 207.997412 21.781786 205.299495 20.906786 202.278662 20.292203 C 199.257828 19.667203 196.372411 19.370328 193.632828 19.406786 C 191.106786 19.438036 189.028661 19.646369 187.393244 20.016161 C 185.763036 20.391161 184.929702 20.932828 184.893244 21.64637 C 184.851577 22.104703 185.346369 22.484911 186.377619 22.792203 C 187.414078 23.094286 189.065119 23.33387 191.341161 23.505745 L 197.62762 24.042203 C 204.460954 24.64637 209.419287 25.911995 212.507829 27.828662 C 215.606788 29.745328 217.158871 32.536995 217.158871 36.203662 C 217.19533 38.938037 216.195329 41.344287 214.164079 43.427621 C 212.143246 45.510954 209.263037 47.135955 205.53387 48.30783 C 201.799495 49.479705 197.388037 50.068246 192.304703 50.068246 Z M 192.304703 50.068246 " transform="matrix(0.75, 0, 0, 0.75, 105.791014, 151.105068)"/>
<g fill="#0A0A0A" fill-opacity="1">
<use xlink:href="#glyph-0-0" x="106.541014" y="212.017676"/>
</g>
<g fill="#0A0A0A" fill-opacity="1">
<use xlink:href="#glyph-0-1" x="123.617309" y="212.017676"/>
</g>
<g fill="#0A0A0A" fill-opacity="1">
<use xlink:href="#glyph-0-2" x="141.486881" y="212.017676"/>
</g>
<g fill="#0A0A0A" fill-opacity="1">
<use xlink:href="#glyph-0-3" x="160.608997" y="212.017676"/>
</g>
<g fill="#0A0A0A" fill-opacity="1">
<use xlink:href="#glyph-0-4" x="176.516261" y="212.017676"/>
</g>
<g fill="#0A0A0A" fill-opacity="1">
<use xlink:href="#glyph-0-5" x="189.020787" y="212.017676"/>
</g>
<g fill="#0A0A0A" fill-opacity="1">
<use xlink:href="#glyph-0-6" x="195.554875" y="212.017676"/>
</g>
<g fill="#0A0A0A" fill-opacity="1">
<use xlink:href="#glyph-0-6" x="214.426478" y="212.017676"/>
</g>
<g fill="#0A0A0A" fill-opacity="1">
<use xlink:href="#glyph-0-6" x="233.29808" y="212.017676"/>
</g>
<g fill="#0A0A0A" fill-opacity="1">
<use xlink:href="#glyph-0-6" x="252.169683" y="212.017676"/>
</g>
</svg>
